<?xml version="1.0" encoding="utf-8"?>
<!-- Generator: Adobe Illustrator 22.0.0, SVG Export Plug-In . SVG Version: 6.00 Build 0)  -->
<svg version="1.1" id="Capa_1" focusable="false" xmlns="http://www.w3.org/2000/svg" xmlns:xlink="http://www.w3.org/1999/xlink"
	 x="0px" y="0px" viewBox="0 0 448 512" style="enable-background:new 0 0 448 512;" xml:space="preserve">
<style type="text/css">
	.st0{fill:#90F25C;}
</style>
<path class="st0" d="M351.5,480h-255C43.2,480,0,436.8,0,383.5v-255C0,75.2,43.2,32,96.5,32h255c53.3,0,96.5,43.2,96.5,96.5v255
	C448,436.8,404.8,480,351.5,480z M142.2,235.5c-4.5,3.7-11.3,5.5-20.5,5.5c-12.1,0-21.1-2.4-27-7.1c-5.9-4.7-8.9-12.6-8.9-23.6H42.6
	l-0.3,0.8c-0.4,20.5,7.3,36.1,23.1,47s34.6,16.3,56.3,16.3c21.6,0,38.9-4.7,52-14.2c13.1-9.5,19.6-22.6,19.6-39.4
	c0-16.5-5.5-29.5-16.5-39c-11-9.4-27.3-17.4-49-23.9c-14.1-5.1-23.7-9.3-28.8-12.7c-5.1-3.4-7.7-7.8-7.7-13.4
	c0-5.8,2.5-10.6,7.6-14.6c5.1-3.9,12.1-5.9,21-5.9c9.1,0,16.2,2.4,21.4,7.1c5.2,4.8,7.7,11,7.7,18.6h43l0.3-0.8
	c0.4-17.1-6.1-31.2-19.6-42C159.3,83.4,142,78,120.8,78C99.5,78,81.9,82.9,68,92.8s-20.8,22.8-20.8,38.8c0,16.4,5.8,29,17.4,37.7
	s29.5,16.9,53.6,24.5c11.5,4.1,19.5,8,24,11.7s6.7,8.9,6.7,15.6C149,227,146.7,231.8,142.2,235.5z M311.7,228.9H265v200.5h133v-35.8
	h-86.3V228.9z"/>
</svg>
